<svg fill="none" height="24" viewBox="0 0 25 26" width="24" xmlns="http://www.w3.org/2000/svg"><g stroke="#292d32" stroke-width="1.5"><path d="m8.81 2-3.62 3.63" stroke-linecap="round" stroke-linejoin="round" stroke-miterlimit="10"/><path d="m15.19 2 3.62 3.63" stroke-linecap="round" stroke-linejoin="round" stroke-miterlimit="10"/><path d="m2 7.84998c0-1.85.99-2 2.22-2h15.56c1.23 0 2.22.15 2.22 2 0 2.15-.99 2-2.22 2h-15.56c-1.23 0-2.22.15-2.22-2z"/><g stroke-linecap="round"><path d="m9.76001 14v3.55"/><path d="m14.36 14v3.55"/><path d="m3.5 10 1.41 8.64c.32 1.94 1.09 3.36 3.95 3.36h6.03c3.11 0 3.57-1.36 3.93-3.24l1.68-8.76"/></g></g></svg>